<svg width="25" height="28" viewBox="0 0 25 28" fill="none" xmlns="http://www.w3.org/2000/svg">
<path d="M12.4997 3.7622C12.7712 3.7622 13.0316 3.65434 13.2236 3.46235C13.4156 3.27036 13.5234 3.00996 13.5234 2.73844V1.71468C13.5234 1.44316 13.4156 1.18276 13.2236 0.990771C13.0316 0.798778 12.7712 0.690918 12.4997 0.690918C12.2282 0.690918 11.9678 0.798778 11.7758 0.990771C11.5838 1.18276 11.4759 1.44316 11.4759 1.71468V2.73844C11.4759 3.00996 11.5838 3.27036 11.7758 3.46235C11.9678 3.65434 12.2282 3.7622 12.4997 3.7622Z" fill="#2769D9"/>
<path d="M3.56557 12.6972C3.83709 12.6972 4.09749 12.5893 4.28948 12.3973C4.48147 12.2053 4.58933 11.9449 4.58933 11.6734C4.58933 7.51284 7.96774 3.96755 12.1201 3.77099C16.2776 3.57903 19.9841 6.78085 20.3757 10.9174C20.3994 11.1687 20.4112 11.421 20.4111 11.6734C20.4111 11.9449 20.5189 12.2053 20.7109 12.3973C20.9029 12.5893 21.1633 12.6972 21.4348 12.6972C21.7063 12.6972 21.9667 12.5893 22.1587 12.3973C22.3507 12.2053 22.4586 11.9449 22.4586 11.6734C22.4586 11.354 22.4437 11.0346 22.414 10.7244C21.9211 5.51548 17.2543 1.47981 12.0234 1.72603C6.79503 1.97326 2.54181 6.43584 2.54181 11.6734C2.54181 11.9449 2.64967 12.2053 2.84166 12.3973C3.03366 12.5893 3.29405 12.6972 3.56557 12.6972ZM1.64653 19.6797C1.90831 19.6798 2.16018 19.5796 2.35037 19.3997C3.05634 18.7289 3.61882 17.9218 4.00376 17.0272C4.3887 16.1327 4.58809 15.1693 4.58984 14.1954C4.58984 13.9239 4.48198 13.6635 4.28999 13.4715C4.098 13.2795 3.8376 13.1717 3.56608 13.1717C3.29457 13.1717 3.03417 13.2795 2.84217 13.4715C2.65018 13.6635 2.54232 13.9239 2.54232 14.1954C2.54114 14.8911 2.39876 15.5792 2.12379 16.2182C1.84883 16.8571 1.44702 17.4336 0.942694 17.9127C0.79425 18.0537 0.691452 18.2359 0.64756 18.4358C0.603668 18.6358 0.620695 18.8443 0.696447 19.0345C0.7722 19.2247 0.9032 19.3878 1.07255 19.5028C1.24189 19.6178 1.44182 19.6794 1.64653 19.6797ZM23.3544 19.6797C23.5592 19.6797 23.7593 19.6182 23.9288 19.5032C24.0983 19.3883 24.2295 19.2251 24.3053 19.0348C24.3811 18.8445 24.398 18.6359 24.354 18.4358C24.3099 18.2358 24.2069 18.0536 24.0582 17.9127C23.5538 17.4337 23.152 16.8572 22.877 16.2182C22.6021 15.5792 22.4597 14.8911 22.4586 14.1954C22.4586 13.9239 22.3507 13.6635 22.1587 13.4715C21.9667 13.2795 21.7063 13.1717 21.4348 13.1717C21.1633 13.1717 20.9029 13.2795 20.7109 13.4715C20.5189 13.6635 20.4111 13.9239 20.4111 14.1954C20.4111 16.1565 21.2275 18.0535 22.6505 19.3997C22.8407 19.5796 23.0926 19.6798 23.3544 19.6797ZM12.4999 27.3088C15.2743 27.3088 17.6187 24.9644 17.6187 22.19C17.6187 21.9185 17.5109 21.6581 17.3189 21.4661C17.1269 21.2741 16.8665 21.1662 16.595 21.1662C16.3235 21.1662 16.0631 21.2741 15.8711 21.4661C15.6791 21.6581 15.5712 21.9185 15.5712 22.19C15.5712 23.8546 14.1646 25.2613 12.4999 25.2613C10.8353 25.2613 9.42865 23.8546 9.42865 22.19C9.42865 21.9185 9.32079 21.6581 9.1288 21.4661C8.93681 21.2741 8.67641 21.1662 8.40489 21.1662C8.13337 21.1662 7.87297 21.2741 7.68098 21.4661C7.48899 21.6581 7.38113 21.9185 7.38113 22.19C7.38113 24.9644 9.72554 27.3088 12.4999 27.3088Z" fill="#2769D9"/>
<path d="M21.9471 23.2135C23.1946 23.2135 24.3043 22.4508 24.7747 21.2704C25.2457 20.0885 24.9646 18.7704 24.0586 17.9125C23.8614 17.7258 23.5981 17.625 23.3267 17.6324C23.0552 17.6398 22.7978 17.7547 22.611 17.9519C22.4243 18.1491 22.3235 18.4124 22.3309 18.6839C22.3383 18.9553 22.4532 19.2128 22.6504 19.3995C23.0988 19.8244 22.934 20.3593 22.8726 20.5128C22.8117 20.6654 22.5644 21.166 21.9471 21.166C21.6756 21.166 21.4152 21.2739 21.2232 21.4659C21.0312 21.6578 20.9233 21.9182 20.9233 22.1898C20.9233 22.4613 21.0312 22.7217 21.2232 22.9137C21.4152 23.1057 21.6756 23.2135 21.9471 23.2135ZM3.05359 23.2135C3.32511 23.2135 3.58551 23.1057 3.7775 22.9137C3.9695 22.7217 4.07736 22.4613 4.07736 22.1898C4.07736 21.9182 3.9695 21.6578 3.7775 21.4659C3.58551 21.2739 3.32511 21.166 3.05359 21.166C2.43575 21.166 2.18801 20.6633 2.12658 20.5093C2.06567 20.3562 1.90135 19.8233 2.34976 19.399C2.53974 19.2106 2.64849 18.9554 2.65276 18.6879C2.65702 18.4204 2.55646 18.1619 2.37258 17.9676C2.1887 17.7733 1.93609 17.6586 1.66876 17.6481C1.40144 17.6376 1.14063 17.7322 0.942087 17.9115C0.0360584 18.7694 -0.245476 20.0864 0.22443 21.2663C0.69536 22.4493 1.80614 23.2135 3.05359 23.2135ZM21.4352 15.2185C21.7067 15.2185 21.9671 15.1106 22.1591 14.9186C22.3511 14.7266 22.459 14.4662 22.459 14.1947V11.6732C22.459 11.4017 22.3511 11.1413 22.1591 10.9493C21.9671 10.7573 21.7067 10.6494 21.4352 10.6494C21.1637 10.6494 20.9033 10.7573 20.7113 10.9493C20.5193 11.1413 20.4115 11.4017 20.4115 11.6732V14.1947C20.4115 14.4662 20.5193 14.7266 20.7113 14.9186C20.9033 15.1106 21.1637 15.2185 21.4352 15.2185ZM3.56548 15.2185C3.83699 15.2185 4.09739 15.1106 4.28938 14.9186C4.48138 14.7266 4.58924 14.4662 4.58924 14.1947V11.6732C4.58924 11.4017 4.48138 11.1413 4.28938 10.9493C4.09739 10.7573 3.83699 10.6494 3.56548 10.6494C3.29396 10.6494 3.03356 10.7573 2.84157 10.9493C2.64957 11.1413 2.54172 11.4017 2.54172 11.6732V14.1947C2.54172 14.4662 2.64957 14.7266 2.84157 14.9186C3.03356 15.1106 3.29396 15.2185 3.56548 15.2185Z" fill="#2769D9"/>
<path d="M3.05342 23.2135H21.9469C22.2185 23.2135 22.4789 23.1057 22.6709 22.9137C22.8628 22.7217 22.9707 22.4613 22.9707 22.1898C22.9707 21.9183 22.8628 21.6579 22.6709 21.4659C22.4789 21.2739 22.2185 21.166 21.9469 21.166H3.05394C2.78242 21.1659 2.52199 21.2737 2.32995 21.4657C2.13791 21.6576 2.02999 21.918 2.02992 22.1895C2.02985 22.461 2.13765 22.7215 2.32959 22.9135C2.52153 23.1055 2.78191 23.2135 3.05342 23.2135Z" fill="#2769D9"/>
</svg>
