<svg width="32" height="28" viewBox="0 0 32 28" fill="none" xmlns="http://www.w3.org/2000/svg">
<path d="M29.2422 10.7773H25.5508V2.33984C25.5508 1.37059 24.7622 0.582031 23.793 0.582031H8.20703C7.23777 0.582031 6.44922 1.37059 6.44922 2.33984V7.61328H2.75781C1.78855 7.61328 1 8.40184 1 9.37109V20.1523C1 21.1216 1.78855 21.9102 2.75781 21.9102H7.96434L10.1365 24.0823C10.2509 24.1967 10.4008 24.2539 10.5508 24.2539C10.7007 24.2539 10.8507 24.1967 10.9651 24.0823L11.8984 23.1489V23.3164C11.8984 24.2857 12.687 25.0742 13.6562 25.0742H18.8628L21.0349 27.2463C21.1493 27.3608 21.2993 27.418 21.4492 27.418C21.5992 27.418 21.7492 27.3608 21.8635 27.2463L24.0357 25.0742H29.2422C30.2114 25.0742 31 24.2857 31 23.3164V12.5352C31 11.5659 30.2114 10.7773 29.2422 10.7773ZM7.62109 2.33984C7.62109 2.01676 7.88395 1.75391 8.20703 1.75391H23.793C24.1161 1.75391 24.3789 2.01676 24.3789 2.33984V13.1211C24.3789 13.4442 24.1161 13.707 23.793 13.707H18.3438C18.1884 13.707 18.0393 13.7688 17.9294 13.8787L16 15.8081L14.0706 13.8787C13.9607 13.7688 13.8116 13.707 13.6562 13.707H8.20703C7.88395 13.707 7.62109 13.4442 7.62109 13.1211V2.33984ZM12.4802 20.9099L10.5508 22.8393L8.62135 20.9099C8.51146 20.8 8.36243 20.7383 8.20703 20.7383H2.75781C2.43473 20.7383 2.17188 20.4754 2.17188 20.1523V9.37109C2.17188 9.04801 2.43473 8.78516 2.75781 8.78516H6.44922V13.1211C6.44922 14.0904 7.23777 14.8789 8.20703 14.8789H13.4136L15.5857 17.051C15.7001 17.1655 15.8501 17.2227 16 17.2227C16.1499 17.2227 16.2999 17.1655 16.4143 17.051L18.5864 14.8789H18.9297V20.1523C18.9297 20.4754 18.6668 20.7383 18.3438 20.7383H12.8945C12.7391 20.7383 12.5901 20.8 12.4802 20.9099ZM29.8281 23.3164C29.8281 23.6395 29.5653 23.9023 29.2422 23.9023H23.793C23.6376 23.9024 23.4885 23.9641 23.3787 24.074L21.4492 26.0034L19.5198 24.074C19.4099 23.9641 19.2609 23.9024 19.1055 23.9023H13.6562C13.3332 23.9023 13.0703 23.6395 13.0703 23.3164V21.9771L13.1372 21.9102H18.3438C19.313 21.9102 20.1016 21.1216 20.1016 20.1523V14.8789H23.793C24.7622 14.8789 25.5508 14.0904 25.5508 13.1211V11.9492H29.2422C29.5653 11.9492 29.8281 12.2121 29.8281 12.5352V23.3164Z" fill="#2769D9" stroke="#2769D9" stroke-width="0.5"/>
<path d="M21.4492 3.86328H10.5595C10.2358 3.86328 9.97352 4.12561 9.97352 4.44922C9.97352 4.77283 10.2358 5.03516 10.5595 5.03516H21.4492C21.7728 5.03516 22.0352 4.77283 22.0352 4.44922C22.0352 4.12561 21.7728 3.86328 21.4492 3.86328ZM21.8635 7.31621C21.7545 7.20723 21.6033 7.14453 21.4492 7.14453C21.2951 7.14453 21.1439 7.20723 21.035 7.31621C20.926 7.42519 20.8633 7.57637 20.8633 7.73047C20.8633 7.88457 20.926 8.03574 21.035 8.14473C21.1439 8.25371 21.2951 8.31641 21.4492 8.31641C21.6033 8.31641 21.7545 8.25371 21.8635 8.14473C21.9725 8.03574 22.0352 7.88457 22.0352 7.73047C22.0352 7.57637 21.9725 7.42519 21.8635 7.31621ZM18.5397 7.14453H10.5595C10.2358 7.14453 9.97352 7.40686 9.97352 7.73047C9.97352 8.05408 10.2358 8.31641 10.5595 8.31641H18.5397C18.8634 8.31641 19.1257 8.05408 19.1257 7.73047C19.1257 7.40686 18.8634 7.14453 18.5397 7.14453ZM21.4492 10.4258H13.426C13.1024 10.4258 12.8401 10.6881 12.8401 11.0117C12.8401 11.3353 13.1024 11.5977 13.426 11.5977H21.4492C21.7728 11.5977 22.0352 11.3353 22.0352 11.0117C22.0352 10.6881 21.7728 10.4258 21.4492 10.4258ZM10.5998 10.4258H10.5508C10.2272 10.4258 9.96484 10.6881 9.96484 11.0117C9.96484 11.3353 10.2272 11.5977 10.5508 11.5977H10.5998C10.9234 11.5977 11.1858 11.3353 11.1858 11.0117C11.1858 10.6881 10.9234 10.4258 10.5998 10.4258Z" fill="#2769D9" stroke="#2769D9" stroke-width="0.5"/>
</svg>
