<svg width="30" height="30" viewBox="0 0 30 30" fill="none" xmlns="http://www.w3.org/2000/svg">
<path d="M28.6645 8.78021C29.5247 7.81465 30 6.5666 30 5.27344C30 2.36566 27.6343 0 24.7266 0C23.4297 3.63579e-05 22.1784 0.478061 21.2118 1.34268C19.3181 0.480879 17.2144 0 15 0C12.7856 0 10.6819 0.480879 8.78813 1.34268C7.82158 0.478061 6.57027 3.42542e-05 5.27344 0C2.36566 0 0 2.36566 0 5.27344C1.02698e-05 6.5666 0.47532 7.81465 1.33553 8.78021C0.478008 10.6597 0 12.746 0 14.9414C0 17.1292 0.470391 19.25 1.36166 21.1907C0.485326 22.1599 7.93739e-05 23.4199 0 24.7266C0 27.6343 2.36566 30 5.27344 30C6.57615 29.9999 7.83271 29.5176 8.80084 28.6459C10.7262 29.5324 12.8295 30 15 30C17.1705 30 19.2738 29.5324 21.1992 28.6459C22.1673 29.5176 23.4238 29.9999 24.7266 30C27.6343 30 30 27.6343 30 24.7266C29.9999 23.4199 29.5147 22.1599 28.6383 21.1907C29.5296 19.25 30 17.1292 30 14.9414C30 12.746 29.522 10.6597 28.6645 8.78021ZM15 1.75781C18.339 1.75781 21.3928 2.99508 23.7246 5.03256L19.9782 8.77887C18.5645 7.64672 16.8261 7.03125 15 7.03125C13.1739 7.03125 11.4355 7.64672 10.0218 8.77887L6.27551 5.03244C8.6073 2.99502 11.661 1.75781 15 1.75781ZM21.2109 14.9414C21.2109 18.3398 18.3667 21.2109 15 21.2109C11.6333 21.2109 8.78906 18.3398 8.78906 14.9414C8.78906 11.549 11.5753 8.78906 15 8.78906C18.4247 8.78906 21.2109 11.549 21.2109 14.9414ZM5.27344 1.75781C5.90985 1.75792 6.53428 1.93087 7.08006 2.2582C5.12549 3.47361 3.47098 5.12426 2.25393 7.07332C1.92929 6.52907 1.75786 5.90716 1.75781 5.27344C1.75781 3.33492 3.33492 1.75781 5.27344 1.75781ZM5.0308 6.27369L8.77582 10.0188C7.64537 11.417 7.03125 13.1344 7.03125 14.9414C7.03125 16.7709 7.6568 18.5202 8.80734 19.9497L5.04961 23.7075C3.00158 21.365 1.75781 18.2965 1.75781 14.9414C1.75781 11.6259 2.99391 8.59283 5.0308 6.27369ZM5.27344 28.2422C3.33492 28.2422 1.75781 26.6651 1.75781 24.7266C1.7581 24.0776 1.93813 23.4414 2.27795 22.8885C3.49547 24.833 5.15859 26.5031 7.1042 27.7267C6.55295 28.0636 5.91948 28.2419 5.27344 28.2422ZM15 28.2422C11.6684 28.2422 8.62072 26.9996 6.29092 24.9521L10.0473 21.1957C11.4611 22.3445 13.1895 22.9688 15 22.9688C16.8105 22.9688 18.5389 22.3445 19.9527 21.1957L23.7092 24.9521C21.3794 26.9995 18.3316 28.2422 15 28.2422ZM24.7266 28.2422C24.0805 28.2419 23.4471 28.0636 22.8958 27.7267C24.8379 26.5053 26.5024 24.8364 27.722 22.8885C28.0619 23.4414 28.2419 24.0776 28.2422 24.7266C28.2422 26.6651 26.6651 28.2422 24.7266 28.2422ZM24.9505 23.7074L21.1927 19.9496C22.3432 18.5202 22.9688 16.7709 22.9688 14.9414C22.9688 13.1344 22.3546 11.4169 21.2242 10.0188L24.9693 6.27375C27.0062 8.59289 28.2422 11.626 28.2422 14.9414C28.2422 18.2965 26.9984 21.3649 24.9505 23.7074ZM27.7461 7.07326C26.529 5.1242 24.8745 3.47355 22.9199 2.25814C23.4657 1.93086 24.0902 1.75793 24.7266 1.75781C26.6651 1.75781 28.2422 3.33492 28.2422 5.27344C28.2421 5.90714 28.0707 6.52903 27.7461 7.07326Z" fill="#2769D9"/>
</svg>
