<svg width="49" height="45" viewBox="0 0 49 45" fill="none" xmlns="http://www.w3.org/2000/svg">
<path fill-rule="evenodd" clip-rule="evenodd" d="M17.5288 21.4813C21.3394 21.5753 24.5968 23.039 26.0077 25.9166C27.9365 29.8515 29.7459 33.9392 31.5944 37.9221C33.0983 41.1629 28.1989 43.4364 26.695 40.1956C24.919 36.3674 23.1409 32.5411 21.3561 28.7167V42.5111C21.3561 43.8349 20.2761 44.9158 18.9514 44.9158H7.82113C6.4974 44.9158 5.41648 43.8358 5.41648 42.5111V40.7351H1.88784C0.850988 40.7351 0.00505474 39.8921 0.00211747 38.8552C-0.00669434 35.8661 0.0148456 31.2996 0.0148456 29.3581C0.0148456 24.2041 4.12115 21.6154 9.22318 21.4823L9.21927 21.4764L10.6282 16.6377L16.4978 16.438L17.5327 21.4764L17.5288 21.4813Z" fill="#07A0B6"/>
<path fill-rule="evenodd" clip-rule="evenodd" d="M17.5295 21.4813C21.3401 21.5753 24.5975 23.039 26.0084 25.9166C27.9372 29.8515 29.7466 33.9392 31.5951 37.9221C31.9681 38.727 31.9466 39.472 31.6803 40.0879C30.4388 40.7547 28.7283 40.5657 27.9431 38.8738C26.167 35.0456 24.389 31.2193 22.6041 27.395V31.3946C22.188 30.5016 21.7719 29.6097 21.3558 28.7168V42.5111C21.3558 42.8166 21.298 43.1084 21.1932 43.3776C20.8897 43.5157 20.5539 43.593 20.1995 43.593H9.07015C7.74642 43.593 6.66551 42.5131 6.66551 41.1884V28.7765C6.66551 28.3976 6.35905 28.0911 5.98014 28.0911C5.60123 28.0911 5.29478 28.3976 5.29478 28.7765V39.4123H3.13687C2.10001 39.4123 1.25408 38.5693 1.25114 37.5325C1.24233 34.5433 1.26387 29.9768 1.26387 28.0353C1.26387 26.2661 1.74754 24.8004 2.58956 23.6314C4.20407 22.3096 6.45011 21.5997 8.95266 21.4911C9.33352 21.4744 9.70949 21.4793 10.1041 21.4686L10.1002 21.4627L11.5002 16.6074L16.4985 16.437L17.5334 21.4754L17.5295 21.4813Z" fill="#00B2CA"/>
<path fill-rule="evenodd" clip-rule="evenodd" d="M13.3644 1.12799C15.5233 1.12799 15.6966 2.33814 20.0105 1.0007C21.3225 0.594382 22.3368 2.66026 21.7307 5.62201C21.2833 7.80831 21.6015 10.2717 21.6015 11.3653C21.6015 15.9142 17.7831 19.4977 14.0762 19.5505C10.3694 19.6034 5.91649 17.9164 5.12734 11.3653C4.33722 4.81524 8.8146 1.12799 13.3644 1.12799Z" fill="#E2BC92"/>
<path fill-rule="evenodd" clip-rule="evenodd" d="M13.3657 1.12799C15.5246 1.12799 15.6979 2.33814 20.0117 1.0007C21.3237 0.594382 22.3381 2.66026 21.732 5.62201C21.2846 7.80831 21.6028 10.2717 21.6028 11.3653C21.6028 14.239 20.0793 16.7268 18.0222 18.1827C17.2106 18.5333 16.3568 18.7301 15.5099 18.7418C11.803 18.7947 7.35015 17.1077 6.561 10.5566C6.06754 6.46794 7.62723 3.49542 9.97509 1.83783C11.0442 1.36985 12.1986 1.12817 13.3657 1.12799Z" fill="#FAD1A3"/>
<path fill-rule="evenodd" clip-rule="evenodd" d="M8.70132 21.9208C8.45851 21.6329 8.49571 21.2021 8.78455 20.9593C9.0724 20.7165 9.5032 20.7537 9.74601 21.0425L12.6774 24.5281C12.9202 24.8159 12.883 25.2467 12.5942 25.4895C12.3063 25.7324 11.8755 25.6952 11.6327 25.4063L8.70132 21.9208ZM17.1283 20.882C17.245 20.7437 17.4117 20.6573 17.5919 20.6417C17.7721 20.6261 17.9511 20.6826 18.0898 20.7987C18.2281 20.9154 18.3145 21.0821 18.3301 21.2623C18.3457 21.4425 18.2892 21.6215 18.173 21.7602L15.2416 25.2458C15.125 25.384 14.9583 25.4704 14.7781 25.486C14.5979 25.5016 14.4188 25.4451 14.2802 25.329C14.1419 25.2123 14.0555 25.0457 14.0399 24.8654C14.0243 24.6852 14.0808 24.5062 14.197 24.3675L17.1283 20.882Z" fill="#C1D6DF"/>
<path fill-rule="evenodd" clip-rule="evenodd" d="M12.2614 24.8071L10.4834 27.4624L11.9775 28.4004L10.6175 36.5072L13.3854 40.2826L16.3619 36.4984L15.0039 28.4004L16.4979 27.4624L14.7199 24.8071H12.2614Z" fill="#E5A624"/>
<path fill-rule="evenodd" clip-rule="evenodd" d="M14.1858 39.2653L16.3613 36.4994L15.0033 28.4004C15.5017 28.0881 15.9991 27.7757 16.4974 27.4634L14.7194 24.8081H12.6751L11.4375 26.6556L12.9316 27.5926L11.5726 35.6995L14.1858 39.2653Z" fill="#FDB714"/>
<path fill-rule="evenodd" clip-rule="evenodd" d="M13.3567 1.0819C8.89209 1.0819 4.495 4.63599 5.08637 10.9638C8.25372 10.5536 10.3695 8.60033 10.7152 6.21233C13.1472 7.16694 18.3423 8.37612 21.5566 6.65586C21.5938 6.29261 21.6457 5.93035 21.7191 5.57396C22.3252 2.6132 21.3109 0.549275 19.9999 0.954618C15.6879 2.29108 15.5146 1.0819 13.3567 1.0819Z" fill="#7889A4"/>
<path fill-rule="evenodd" clip-rule="evenodd" d="M29.7876 39.6229H19.1987V23.9614H31.9905C32.7376 23.9614 33.4455 24.1337 34.077 24.4412C34.7075 24.1337 35.4154 23.9614 36.1634 23.9614H48.9542V39.6229H38.3654C37.4871 39.6229 37.6497 41.2169 36.7714 41.2169H31.3815C30.5033 41.2169 30.6658 39.6229 29.7876 39.6229Z" fill="#D1C4A0"/>
<path fill-rule="evenodd" clip-rule="evenodd" d="M30.4044 39.3233C30.1694 38.8602 30.0216 38.264 29.485 38.264H19.1987V23.9614H31.9905C32.7376 23.9614 33.4455 24.1337 34.077 24.4412C34.7075 24.1337 35.4154 23.9614 36.1634 23.9614H47.7431V38.2649H37.1543C36.276 38.2649 36.4385 39.8589 35.5603 39.8589H31.5588C31.1759 39.8589 30.5914 39.6925 30.4044 39.3233Z" fill="#E8DAB2"/>
<path fill-rule="evenodd" clip-rule="evenodd" d="M31.9909 22.2422H21.8945V36.9285H31.9909C32.7938 36.9285 33.7327 37.4602 34.0773 38.451C34.422 37.4602 35.3599 36.9285 36.1638 36.9285H46.2602V22.2422H36.1628C35.0153 22.2422 34.0764 23.1811 34.0764 24.3286C34.0773 23.1811 33.1384 22.2422 31.9909 22.2422Z" fill="#CFD0D0"/>
<path fill-rule="evenodd" clip-rule="evenodd" d="M31.9909 22.2422H21.8945V35.643H30.6691C31.4446 35.643 32.3463 35.6802 32.7174 36.6054C32.7389 36.6133 32.7614 36.6221 32.783 36.6309C33.1472 35.688 34.0587 35.642 34.841 35.642H44.9374V22.2422H36.1628C35.0153 22.2422 34.0764 23.1811 34.0764 24.3286C34.0764 23.4866 33.5702 22.7572 32.8476 22.4282C32.7869 22.6231 32.7546 22.8297 32.7546 23.0441C32.7546 22.7993 32.7115 22.5643 32.6332 22.345C32.4261 22.2763 32.2091 22.2415 31.9909 22.2422Z" fill="#E6E6E5"/>
<path fill-rule="evenodd" clip-rule="evenodd" d="M34.2356 10.5112C37.6242 10.5112 40.3715 13.2586 40.3715 16.6462C40.3715 18.9715 38.7825 20.9718 37.5155 22.7998H30.9801C29.7063 20.962 28.1006 18.9882 28.1006 16.6462C28.1006 13.2586 30.8479 10.5112 34.2356 10.5112Z" fill="#E3A037"/>
<path fill-rule="evenodd" clip-rule="evenodd" d="M36.1937 22.8012H30.9801C29.7063 20.9624 28.1006 18.9886 28.1006 16.6466C28.1006 13.4812 30.4974 10.8758 33.5747 10.5469C36.652 10.8768 39.0497 13.4812 39.0497 16.6466C39.0497 18.9719 37.4607 20.9722 36.1937 22.8012Z" fill="#FCB13C"/>
<path fill-rule="evenodd" clip-rule="evenodd" d="M33.3941 4.89532C33.3941 4.51837 33.6996 4.21289 34.0765 4.21289C34.4535 4.21289 34.759 4.51837 34.759 4.89532V7.29409C34.759 7.67103 34.4535 7.97651 34.0765 7.97651C33.6996 7.97651 33.3941 7.67103 33.3941 7.29409V4.89532ZM22.8904 16.7648C22.5135 16.7648 22.208 16.4593 22.208 16.0824C22.208 15.7054 22.5135 15.4 22.8904 15.4H25.2892C25.6662 15.4 25.9716 15.7054 25.9716 16.0824C25.9716 16.4593 25.6662 16.7648 25.2892 16.7648H22.8904ZM25.6818 8.65698C25.4145 8.38969 25.4145 7.95497 25.6818 7.68768C25.9491 7.42039 26.3838 7.42039 26.6511 7.68768L28.3469 9.38346C28.6142 9.65075 28.6142 10.0855 28.3469 10.3528C28.0796 10.6201 27.6449 10.6201 27.3776 10.3528L25.6818 8.65698ZM45.2636 15.397C45.6425 15.397 45.949 15.7035 45.949 16.0824C45.949 16.4613 45.6425 16.7678 45.2636 16.7678H42.8648C42.4859 16.7678 42.1795 16.4613 42.1795 16.0824C42.1795 15.7035 42.4859 15.397 42.8648 15.397H45.2636ZM41.5029 7.68768C41.7702 7.42039 42.2049 7.42039 42.4722 7.68768C42.7395 7.95497 42.7395 8.38969 42.4722 8.65698L40.7764 10.3528C40.5091 10.6201 40.0744 10.6201 39.8071 10.3528C39.5399 10.0855 39.5399 9.65075 39.8071 9.38346L41.5029 7.68768Z" fill="#FDB714"/>
<path fill-rule="evenodd" clip-rule="evenodd" d="M30.665 22.8008H37.8065C39.0989 22.8008 39.0989 26.0533 37.8065 26.0533H37.2484L36.5611 27.9204C36.2791 28.6861 35.8453 29.1081 35.3411 29.1081H33.1313C32.6271 29.1081 32.1924 28.6861 31.9114 27.9204L31.224 26.0533H30.666C29.3726 26.0523 29.3726 22.8008 30.665 22.8008Z" fill="#686969"/>
<path fill-rule="evenodd" clip-rule="evenodd" d="M30.6668 22.8008H37.8083C37.8993 22.8008 37.9835 22.8174 38.0618 22.8478C38.3526 23.8112 38.0667 25.2642 37.2032 25.2642H36.6451L35.9578 27.1313C35.6758 27.8969 35.2421 28.3189 34.7378 28.3189H32.528C32.344 28.3189 32.1707 28.2631 32.0091 28.1554C31.9758 28.081 31.9435 28.0037 31.9132 27.9214L30.935 25.2651H30.0617C29.975 25.2654 29.889 25.2495 29.8081 25.2182C29.5163 24.2528 29.8032 22.8008 30.6668 22.8008ZM24.8148 33.8635C24.4358 33.8635 24.1294 33.5571 24.1294 33.1782C24.1294 32.7992 24.4358 32.4928 24.8148 32.4928H28.1251C28.504 32.4928 28.8104 32.7992 28.8104 33.1782C28.8104 33.5571 28.504 33.8635 28.1251 33.8635H24.8148ZM24.8148 30.7559C24.4358 30.7559 24.1294 30.4494 24.1294 30.0705C24.1294 29.6916 24.4358 29.3852 24.8148 29.3852H27.472C27.8509 29.3852 28.1574 29.6916 28.1574 30.0705C28.1574 30.4494 27.8509 30.7559 27.472 30.7559H24.8148ZM43.2265 32.4928C43.6054 32.4928 43.9119 32.7992 43.9119 33.1782C43.9119 33.5571 43.6054 33.8635 43.2265 33.8635H39.9162C39.5373 33.8635 39.2309 33.5571 39.2309 33.1782C39.2309 32.7992 39.5373 32.4928 39.9162 32.4928H43.2265ZM43.2265 29.3852C43.6054 29.3852 43.9119 29.6916 43.9119 30.0705C43.9119 30.4494 43.6054 30.7559 43.2265 30.7559H40.5693C40.1904 30.7559 39.8839 30.4494 39.8839 30.0705C39.8839 29.6916 40.1904 29.3852 40.5693 29.3852H43.2265Z" fill="#818181"/>
</svg>
