<svg width="24" height="24" viewBox="0 0 24 24" fill="none" xmlns="http://www.w3.org/2000/svg">
<mask id="mask0_3525_11199" style="mask-type:luminance" maskUnits="userSpaceOnUse" x="0" y="0" width="24" height="24">
<path d="M0 0H24V24H0V0Z" fill="white"/>
</mask>
<g mask="url(#mask0_3525_11199)">
<path fill-rule="evenodd" clip-rule="evenodd" d="M9 0C9.34099 0 9.66802 0.135459 9.90914 0.376577C10.1503 0.617695 10.2857 0.944722 10.2857 1.28571V3.42857H16.7143C17.0553 3.42857 17.3823 3.56403 17.6234 3.80515C17.8645 4.04627 18 4.37329 18 4.71429C18 5.05528 17.8645 5.38231 17.6234 5.62342C17.3823 5.86454 17.0553 6 16.7143 6H14.7343L10.692 10.716L11.5886 11.7634C11.8104 12.0226 11.9203 12.3593 11.8939 12.6994C11.8676 13.0395 11.7072 13.3553 11.448 13.5771C11.1888 13.799 10.8522 13.9089 10.512 13.8825C10.1719 13.8561 9.85616 13.6957 9.63429 13.4366L8.99829 12.6926L4.83257 17.5509C4.72468 17.6853 4.59086 17.7966 4.43907 17.8783C4.28728 17.9599 4.12062 18.0103 3.949 18.0262C3.77737 18.0422 3.6043 18.0235 3.44005 17.9712C3.2758 17.9189 3.12374 17.8342 2.99291 17.722C2.86207 17.6098 2.75513 17.4724 2.67845 17.318C2.60177 17.1637 2.55691 16.9955 2.54654 16.8234C2.53616 16.6514 2.56049 16.479 2.61807 16.3165C2.67565 16.1541 2.76531 16.0048 2.88171 15.8777L7.30457 10.7177L3.26571 6H1.28571C0.944722 6 0.617695 5.86454 0.376577 5.62342C0.135459 5.38231 0 5.05528 0 4.71429C0 4.37329 0.135459 4.04627 0.376577 3.80515C0.617695 3.56403 0.944722 3.42857 1.28571 3.42857H7.71429V1.28571C7.71429 0.944722 7.84974 0.617695 8.09086 0.376577C8.33198 0.135459 8.65901 0 9 0ZM11.3486 6L9 8.74114L6.65143 6H9H11.3486ZM16.9577 11.316C16.975 11.2652 17.0078 11.221 17.0514 11.1898C17.0951 11.1585 17.1475 11.1417 17.2011 11.1417C17.2548 11.1417 17.3072 11.1585 17.3508 11.1898C17.3945 11.221 17.4273 11.2652 17.4446 11.316L19.4417 17.1429H14.9606L16.9577 11.316ZM19.8771 10.4829L22.4486 17.9829L22.4674 18.0394L23.928 22.2977C24.0344 22.6192 24.0096 22.9698 23.8591 23.2732C23.7086 23.5765 23.4444 23.8083 23.124 23.918C22.8036 24.0277 22.4528 24.0066 22.1479 23.8592C21.843 23.7119 21.6085 23.4501 21.4954 23.1309L20.3246 19.7143H14.0794L12.9069 23.1309C12.8535 23.2922 12.7686 23.4414 12.6572 23.5697C12.5458 23.6981 12.41 23.8031 12.2577 23.8786C12.1055 23.9542 11.9398 23.9988 11.7702 24.0099C11.6006 24.021 11.4304 23.9984 11.2696 23.9433C11.1089 23.8882 10.9606 23.8018 10.8334 23.6891C10.7062 23.5763 10.6026 23.4395 10.5287 23.2864C10.4547 23.1334 10.4118 22.9672 10.4025 22.7975C10.3931 22.6278 10.4175 22.4579 10.4743 22.2977L11.9349 18.0394C11.9407 18.0204 11.947 18.0016 11.9537 17.9829L14.5251 10.4829C14.7162 9.92496 15.0769 9.44072 15.5567 9.09787C16.0365 8.75503 16.6114 8.57071 17.2011 8.57071C17.7909 8.57071 18.3658 8.75503 18.8456 9.09787C19.3254 9.44072 19.6861 9.92496 19.8771 10.4829Z" fill="#2769D9"/>
</g>
</svg>
