<svg width="39" height="66" viewBox="0 0 39 66" fill="none" xmlns="http://www.w3.org/2000/svg">
<path d="M18.54 33.4424H20.1495V65.9459H18.54V33.4424ZM27.7424 50.0275C26.3432 51.4257 24.0485 51.5422 22.9048 51.4948C22.7101 51.4881 22.5253 51.4078 22.3876 51.2701C22.2499 51.1324 22.1696 50.9475 22.1629 50.7529C22.1248 49.6092 22.2329 47.3155 23.6312 45.9245C25.0294 44.5263 27.3241 44.4098 28.4678 44.4562C28.8697 44.4716 29.1942 44.788 29.2097 45.1981C29.2488 46.3418 29.1417 48.6365 27.7424 50.0275Z" fill="#7BD681"/>
<path d="M19.4098 55.2151L25.7271 48.8958C25.7869 48.8384 25.8346 48.7697 25.8675 48.6937C25.9004 48.6177 25.9178 48.5359 25.9186 48.4531C25.9195 48.3703 25.9038 48.2881 25.8725 48.2115C25.8412 48.1348 25.7949 48.0651 25.7364 48.0066C25.6778 47.948 25.6082 47.9017 25.5315 47.8704C25.4548 47.8391 25.3727 47.8234 25.2898 47.8243C25.207 47.8252 25.1252 47.8425 25.0492 47.8754C24.9732 47.9083 24.9045 47.956 24.8472 48.0158L19.4098 53.4563V55.2151ZM11.2152 52.7721C12.6144 54.1713 14.9091 54.2867 16.0528 54.2404C16.2475 54.2337 16.4323 54.1534 16.57 54.0157C16.7077 53.878 16.788 53.6931 16.7947 53.4985C16.8328 52.3548 16.7246 50.0601 15.3264 48.6701C13.9282 47.2708 11.6335 47.1554 10.4898 47.2018C10.2951 47.2082 10.1101 47.2885 9.97231 47.4262C9.83455 47.564 9.75432 47.749 9.74789 47.9437C9.70874 49.0874 9.81693 51.3821 11.2162 52.7721H11.2152Z" fill="#7BD681"/>
<path d="M19.5479 57.9601L13.2306 51.6418C13.1708 51.5845 13.1231 51.5158 13.0902 51.4398C13.0573 51.3638 13.04 51.282 13.0391 51.1991C13.0382 51.1163 13.0539 51.0342 13.0852 50.9575C13.1165 50.8808 13.1628 50.8112 13.2213 50.7526C13.2799 50.694 13.3496 50.6478 13.4262 50.6165C13.5029 50.5852 13.5851 50.5695 13.6679 50.5703C13.7507 50.5712 13.8325 50.5886 13.9085 50.6215C13.9845 50.6544 14.0532 50.7021 14.1106 50.7618L19.5479 56.2023V57.9601Z" fill="#7BD681"/>
<path d="M19.4785 43.9595C20.6042 43.9595 21.5166 43.047 21.5166 41.9214C21.5166 40.7958 20.6042 39.8833 19.4785 39.8833C18.3529 39.8833 17.4404 40.7958 17.4404 41.9214C17.4404 43.047 18.3529 43.9595 19.4785 43.9595Z" fill="#3D4A75"/>
<path d="M29.6859 25.5793L29.5756 25.7308C28.84 26.7449 28.1965 27.8229 27.6529 28.9518C27.0437 30.2023 26.5714 31.5151 26.2444 32.8672C26.1764 33.1279 26.1208 33.3958 26.0662 33.6637C26.0099 33.9311 25.8629 34.1708 25.6501 34.3422C25.4374 34.5136 25.1719 34.6063 24.8987 34.6045H14.0797C13.8043 34.6067 13.5369 34.5125 13.3236 34.3382C13.1104 34.164 12.9649 33.9206 12.9122 33.6503C12.3764 30.7992 11.2018 28.0935 9.41613 25.7782C7.72051 23.5646 6.80305 20.8531 6.80616 18.0647C6.80616 15.7494 7.42439 13.5794 8.5166 11.7175C9.4229 10.1482 10.6553 8.79167 12.1307 7.73937C13.606 6.68708 15.29 5.96355 17.0688 5.61763C17.9261 5.45379 18.8122 5.37033 19.7262 5.39918C19.8983 5.39918 20.0765 5.40537 20.2548 5.41258C21.1615 5.46719 22.0476 5.61866 22.8998 5.85874C27.9549 7.28788 31.7745 11.8216 32.1248 17.227C32.3309 20.3594 31.3891 23.2712 29.6859 25.5793Z" fill="#FDC72E"/>
<path d="M13.9044 34.6064H25.0552V39.7934C25.0552 40.9681 24.1021 41.9212 22.9274 41.9212H16.0311C15.4668 41.9212 14.9256 41.697 14.5265 41.298C14.1275 40.8989 13.9033 40.3577 13.9033 39.7934L13.9044 34.6064Z" fill="#4F5D99"/>
<path d="M25.6589 36.8386C25.6589 37.1045 25.4425 37.3208 25.1777 37.3208H13.7796C13.6518 37.3208 13.5293 37.2701 13.4389 37.1797C13.3486 37.0894 13.2979 36.9669 13.2979 36.8391C13.2979 36.7114 13.3486 36.5888 13.4389 36.4985C13.5293 36.4082 13.6518 36.3574 13.7796 36.3574H25.1777C25.4435 36.3574 25.6589 36.5738 25.6589 36.8386ZM25.6589 39.1302C25.6589 39.3971 25.4425 39.6124 25.1777 39.6124H13.7796C13.6518 39.6124 13.5293 39.5617 13.4389 39.4713C13.3486 39.381 13.2979 39.2585 13.2979 39.1307C13.2979 39.003 13.3486 38.8804 13.4389 38.7901C13.5293 38.6998 13.6518 38.649 13.7796 38.649H25.1777C25.4435 38.649 25.6589 38.8654 25.6589 39.1302Z" fill="#3D4A75"/>
<path d="M22.065 34.6066H20.9316V24.142H18.0259V34.6055H16.8925V24.142H15.4953C14.8259 24.1414 14.1841 23.8753 13.7108 23.402C13.2375 22.9287 12.9714 22.2869 12.9708 21.6175V21.5279C12.9708 20.8577 13.2371 20.2149 13.711 19.741C14.1849 19.2671 14.8276 19.0008 15.4978 19.0008C16.168 19.0008 16.8108 19.2671 17.2847 19.741C17.7586 20.2149 18.0249 20.8577 18.0249 21.5279V23.0116H20.9326V21.5279C20.9326 20.8578 21.1988 20.2152 21.6726 19.7414C22.1464 19.2675 22.7891 19.0014 23.4591 19.0014C24.1292 19.0014 24.7718 19.2675 25.2456 19.7414C25.7194 20.2152 25.9856 20.8578 25.9856 21.5279V21.6175C25.9856 23.0096 24.8532 24.142 23.4612 24.142H22.065V34.6066ZM22.065 23.0116H23.4622C24.2299 23.0116 24.8543 22.3872 24.8543 21.6185V21.5289C24.8543 21.159 24.7073 20.8043 24.4458 20.5428C24.1842 20.2812 23.8295 20.1343 23.4596 20.1343C23.0898 20.1343 22.735 20.2812 22.4735 20.5428C22.2119 20.8043 22.065 21.159 22.065 21.5289V23.0116ZM15.5004 20.1368C14.7276 20.1368 14.1032 20.7613 14.1032 21.5289V21.6185C14.1032 22.3872 14.7276 23.0116 15.4953 23.0116H16.8925V21.5289C16.8925 20.7613 16.2681 20.1368 15.5004 20.1368ZM10.9884 2.72743L12.3402 5.0695C12.4227 5.21243 12.4451 5.38228 12.4024 5.5417C12.3597 5.70112 12.2554 5.83704 12.1125 5.91957C11.9696 6.0021 11.7997 6.02447 11.6403 5.98177C11.4809 5.93906 11.345 5.83478 11.2624 5.69186L9.91057 3.34876C9.82804 3.20583 9.80567 3.03598 9.84837 2.87656C9.89107 2.71714 9.99536 2.58122 10.1383 2.49869C10.2812 2.41616 10.4511 2.39379 10.6105 2.43649C10.7699 2.4792 10.9058 2.58451 10.9884 2.72743ZM4.1507 9.10965L6.49277 10.4625C6.63556 10.5451 6.73971 10.6809 6.78232 10.8403C6.82493 10.9996 6.8025 11.1693 6.71997 11.3121C6.63744 11.4549 6.50157 11.559 6.34225 11.6016C6.18293 11.6443 6.01321 11.6218 5.87042 11.5393L3.52835 10.1874C3.38543 10.1049 3.28114 9.96898 3.23844 9.80956C3.19573 9.65014 3.21811 9.48029 3.30063 9.33737C3.38316 9.19444 3.51909 9.09016 3.67851 9.04745C3.83793 9.00475 4.00778 9.02712 4.1507 9.10965ZM33.085 25.8153L35.4271 27.1672C35.4978 27.208 35.5599 27.2624 35.6096 27.3273C35.6594 27.3921 35.6958 27.4661 35.717 27.5451C35.7381 27.624 35.7435 27.7063 35.7328 27.7873C35.7222 27.8684 35.6957 27.9465 35.6548 28.0172C35.6139 28.088 35.5595 28.15 35.4947 28.1998C35.4298 28.2495 35.3559 28.286 35.2769 28.3072C35.198 28.3283 35.1157 28.3337 35.0346 28.323C34.9536 28.3124 34.8755 28.2858 34.8047 28.245L32.4616 26.8931C32.3908 26.8522 32.3288 26.7978 32.2791 26.733C32.2293 26.6682 32.1929 26.5942 32.1717 26.5152C32.1506 26.4363 32.1452 26.354 32.1558 26.2729C32.1665 26.1919 32.193 26.1138 32.2339 26.043C32.2748 25.9723 32.3292 25.9102 32.394 25.8605C32.4588 25.8107 32.5328 25.7743 32.6118 25.7531C32.6907 25.732 32.773 25.7266 32.8541 25.7372C32.9351 25.7479 33.0132 25.7744 33.084 25.8153H33.085ZM1.42018 18.0565H4.12391C4.28884 18.0565 4.447 18.122 4.56362 18.2386C4.68024 18.3552 4.74575 18.5134 4.74575 18.6783C4.74575 18.8433 4.68024 19.0014 4.56362 19.118C4.447 19.2347 4.28884 19.3002 4.12391 19.3002H1.42018C1.25526 19.3002 1.09709 19.2347 0.980472 19.118C0.863854 19.0014 0.79834 18.8433 0.79834 18.6783C0.79834 18.5134 0.863854 18.3552 0.980472 18.2386C1.09709 18.122 1.25526 18.0565 1.42018 18.0565ZM34.8305 18.0565H37.5342C37.6991 18.0565 37.8573 18.122 37.9739 18.2386C38.0905 18.3552 38.156 18.5134 38.156 18.6783C38.156 18.8433 38.0905 19.0014 37.9739 19.118C37.8573 19.2347 37.6991 19.3002 37.5342 19.3002H34.8315C34.6666 19.3002 34.5084 19.2347 34.3918 19.118C34.2752 19.0014 34.2097 18.8433 34.2097 18.6783C34.2097 18.5134 34.2752 18.3552 34.3918 18.2386C34.5084 18.122 34.6666 18.0565 34.8315 18.0565H34.8305ZM3.52835 27.1692L5.87042 25.8163C5.94119 25.7755 6.01931 25.749 6.10033 25.7383C6.18135 25.7276 6.26368 25.733 6.34262 25.7541C6.42155 25.7753 6.49555 25.8118 6.56039 25.8615C6.62522 25.9113 6.67963 25.9733 6.72049 26.0441C6.76135 26.1148 6.78788 26.1929 6.79855 26.274C6.80922 26.355 6.80383 26.4373 6.78269 26.5163C6.76154 26.5952 6.72506 26.6692 6.67531 26.734C6.62557 26.7989 6.56354 26.8533 6.49277 26.8941L4.1507 28.246C4.00792 28.3285 3.83819 28.351 3.67887 28.3083C3.51955 28.2657 3.38368 28.1616 3.30115 28.0188C3.21862 27.876 3.19619 27.7063 3.2388 27.547C3.28141 27.3876 3.38556 27.2518 3.52835 27.1692ZM32.4626 10.4636L34.8047 9.11171C34.8754 9.07085 34.9535 9.04431 35.0344 9.03361C35.1154 9.02291 35.1977 9.02826 35.2765 9.04936C35.3554 9.07046 35.4294 9.10689 35.4942 9.15657C35.559 9.20625 35.6134 9.26821 35.6543 9.33891C35.6951 9.40961 35.7217 9.48767 35.7324 9.56863C35.7431 9.64958 35.7377 9.73185 35.7166 9.81074C35.6955 9.88963 35.6591 9.96359 35.6094 10.0284C35.5597 10.0932 35.4978 10.1476 35.4271 10.1885L33.085 11.5414C32.9421 11.6239 32.7722 11.6463 32.6128 11.6036C32.4534 11.5609 32.3175 11.4566 32.2349 11.3136C32.1524 11.1707 32.13 11.0009 32.1727 10.8415C32.2154 10.682 32.3197 10.5461 32.4626 10.4636ZM26.6162 5.07259L27.9681 2.73053C28.0089 2.65976 28.0632 2.59772 28.128 2.54795C28.1928 2.49818 28.2667 2.46165 28.3456 2.44046C28.4245 2.41927 28.5068 2.41382 28.5878 2.42443C28.6688 2.43504 28.7469 2.4615 28.8177 2.50229C28.8884 2.54309 28.9505 2.59743 29.0002 2.6622C29.05 2.72697 29.0865 2.80091 29.1077 2.8798C29.1289 2.95869 29.1344 3.04098 29.1237 3.12198C29.1131 3.20297 29.0867 3.28108 29.0459 3.35185L27.693 5.69392C27.6106 5.8367 27.4749 5.94091 27.3156 5.98362C27.1564 6.02632 26.9867 6.00403 26.8439 5.92163C26.7012 5.83924 26.597 5.7035 26.5542 5.54428C26.5115 5.38505 26.5338 5.21538 26.6162 5.07259ZM18.8564 3.32609V0.622354C18.8564 0.457295 18.922 0.298997 19.0387 0.182283C19.1554 0.0655692 19.3137 0 19.4787 0C19.6438 0 19.8021 0.0655692 19.9188 0.182283C20.0355 0.298997 20.1011 0.457295 20.1011 0.622354V3.32609C20.1011 3.49115 20.0355 3.64945 19.9188 3.76616C19.8021 3.88287 19.6438 3.94844 19.4787 3.94844C19.3137 3.94844 19.1554 3.88287 19.0387 3.76616C18.922 3.64945 18.8564 3.49115 18.8564 3.32609Z" fill="#F9AC00"/>
<path d="M32.5091 65.9457C31.7281 64.3383 30.0939 63.2172 28.1918 63.2172C27.2331 63.2174 26.2965 63.5045 25.5025 64.0415C24.1939 62.0395 21.9414 60.7134 19.382 60.7134C16.8225 60.7134 14.5597 62.0395 13.2522 64.0333C12.4612 63.4988 11.5278 63.2145 10.5732 63.2172C8.67006 63.2172 7.03586 64.3383 6.25586 65.9457H32.5091Z" fill="#E9E9FF"/>
<g opacity="0.2">
<path d="M26.3103 32.6356L26.2485 32.8623C26.1764 33.1302 26.1249 33.3981 26.063 33.666C25.96 34.2121 25.4654 34.6036 24.8987 34.6036H15.7386L8.22705 12.2546C8.30948 12.0691 8.41252 11.8939 8.51556 11.7188C10.3187 8.59668 13.4099 6.32983 17.0678 5.61886C17.1193 5.60856 17.1605 5.59825 17.212 5.59825L26.3103 32.6356ZM29.9064 25.2683L29.69 25.5775C29.6488 25.629 29.6076 25.6805 29.5767 25.732C28.9275 26.6388 28.3299 27.597 27.8353 28.5862L20.0353 5.41278C20.1074 5.40248 20.1795 5.41278 20.2517 5.41278C21.1584 5.4643 22.0445 5.61886 22.8998 5.85585C23.0749 5.90737 23.2501 5.95889 23.4253 6.03102L29.9064 25.2683Z" fill="white"/>
</g>
</svg>
