<svg width="49" height="49" viewBox="0 0 49 49" fill="none" xmlns="http://www.w3.org/2000/svg">
<path d="M20.2788 39.1774C19.4841 39.5745 3.37444 48.3252 2.51645 48.7531C1.99978 49.0313 1.32434 48.9122 0.906955 48.4948C0.489572 48.0775 0.37052 47.402 0.648713 46.8854C6.73843 34.7057 10.0379 29.5589 10.2245 29.123L17.2386 32.1632L20.2788 39.1774Z" fill="#FFDF40"/>
<path d="M17.2336 32.1606L0.904785 48.4895C0.906284 48.491 0.906003 48.4931 0.907408 48.4945C1.3247 48.9118 2.00023 49.031 2.5169 48.7528C3.37508 48.3249 19.4846 39.5741 20.2792 39.177L17.239 32.1629L17.2336 32.1606Z" fill="#FFBE40"/>
<path d="M22.2061 47.0656C21.6569 46.5164 21.6569 45.6277 22.2061 45.0786C23.8496 43.4351 23.8496 40.7612 22.2061 39.1176L20.8749 37.7865C20.7197 37.6313 20.6032 37.4419 20.5346 37.2335C20.466 37.025 20.4473 36.8033 20.48 36.5863C20.512 36.369 20.5944 36.1622 20.7208 35.9826C20.8472 35.803 21.014 35.6555 21.2077 35.5521C22.9561 34.6226 25.6144 33.1557 28.527 31.1628C29.0994 30.7689 29.9319 30.798 30.3491 31.3665C32.925 34.1423 32.8387 38.42 30.154 41.1045L24.193 47.0655C23.644 47.6147 22.7552 47.6147 22.2061 47.0656Z" fill="#465D8C"/>
<path d="M2.33669 27.1954C1.78751 26.6462 1.78751 25.7575 2.33669 25.2084L8.2977 19.2474C10.9823 16.5628 15.2599 16.4765 18.0357 19.0524C18.5625 19.5035 18.6323 20.3029 18.2394 20.8744C16.2466 23.787 14.7796 26.4454 13.8501 28.1937C13.7467 28.3874 13.5992 28.5542 13.4196 28.6806C13.24 28.807 13.0332 28.8894 12.8159 28.9213C12.5989 28.9541 12.3772 28.9354 12.1687 28.8668C11.9603 28.7982 11.7708 28.6816 11.6157 28.5264L10.2846 27.1953C8.64109 25.5518 5.96715 25.5518 4.32357 27.1953C3.77458 27.7444 2.88586 27.7444 2.33669 27.1954Z" fill="#5A77B3"/>
<path d="M39.0956 26.2021C36.5722 28.7256 33.552 31.1894 30.0946 33.4944C27.0744 35.561 24.3323 37.0711 22.5242 38.0446C21.5307 38.5612 20.736 38.9587 20.2789 39.1773L10.2246 29.123C10.4432 28.6659 10.8407 27.8712 11.3771 26.8579C12.3308 25.0696 13.8409 22.3275 15.9274 19.2873C18.2125 15.8499 20.6763 12.8296 23.1997 10.3062C25.9816 7.52433 29.5185 5.57707 32.9956 4.20605L41.0827 8.3191L45.1957 16.4062C43.6061 20.4598 41.5595 23.7383 39.0956 26.2021Z" fill="#ECF2FF"/>
<path d="M41.0819 8.31903L41.0768 8.31641L15.2471 34.146L20.2781 39.177C20.7352 38.9584 21.5298 38.561 22.5234 38.0443C24.3314 37.0708 27.0736 35.5607 30.0938 33.4941C33.5512 31.1891 36.5714 28.7253 39.0948 26.2019C41.5586 23.738 43.6053 20.4595 45.1949 16.406L41.0819 8.31903Z" fill="#D9E5FF"/>
<path d="M12.2708 37.1307C11.7216 36.5815 11.7216 35.6928 12.2708 35.1437L22.2057 25.2088C22.7549 24.6596 23.6436 24.6596 24.1927 25.2088C24.7419 25.7579 24.7419 26.6466 24.1927 27.1957L14.2577 37.1307C13.7087 37.6798 12.8199 37.6798 12.2708 37.1307Z" fill="#5A77B3"/>
<path d="M46.904 11.1606C48.1956 6.37187 48.4341 2.59659 48.4539 2.45759C48.4738 2.04039 48.3149 1.64296 48.0367 1.36477C47.7585 1.08658 47.361 0.927528 46.9438 0.947479C46.5465 0.987288 39.8503 1.48391 32.9951 4.20618L45.1952 16.4063C45.851 14.7969 46.4074 13.0483 46.904 11.1606Z" fill="#FF7F40"/>
<path d="M48.0367 1.36481C48.0354 1.3635 48.0333 1.36313 48.0319 1.36182L39.0913 10.3024L45.1953 16.4064C45.851 14.7969 46.4074 13.0484 46.904 11.1607C48.1956 6.37192 48.4341 2.59664 48.454 2.45764C48.4739 2.04044 48.3149 1.64301 48.0367 1.36481Z" fill="#F25A3C"/>
<path d="M24.1932 25.2088C24.1919 25.2074 24.1899 25.207 24.1886 25.2056L12.2681 37.1261C12.2694 37.1274 12.2698 37.1294 12.2713 37.1307C12.8204 37.6799 13.7091 37.6799 14.2582 37.1307L24.1932 27.1957C24.7423 26.6466 24.7423 25.7579 24.1932 25.2088Z" fill="#465D8C"/>
<path d="M26.18 23.2218C23.9893 21.0311 23.9883 17.4655 26.18 15.2738C28.3718 13.0821 31.9372 13.0831 34.128 15.2738C36.3187 17.4645 36.3198 21.03 34.128 23.2218C31.9363 25.4135 28.3707 25.4126 26.18 23.2218Z" fill="#99BBFF"/>
<path d="M34.1287 15.2736C34.1274 15.2723 34.1258 15.2714 34.1245 15.27L26.1772 23.2173C26.1786 23.2186 26.1794 23.2202 26.1808 23.2215C28.3715 25.4122 31.9371 25.4132 34.1288 23.2215C36.3205 21.0297 36.3194 17.4644 34.1287 15.2736Z" fill="#738AFF"/>
</svg>
