<svg width="31" height="32" viewBox="0 0 31 32" fill="none" xmlns="http://www.w3.org/2000/svg">
<path fill-rule="evenodd" clip-rule="evenodd" d="M25.943 4.58008H5.9848V2.46436H25.943V4.58008ZM27.443 5.10222V1.71436V0.964355H26.693H5.2348H4.4848V1.71436V5.10378L1.05467 10.249L0.928711 10.4379V10.665V14.2216V14.6851L1.3433 14.8924L2.70745 15.5745V29.5356H1.67871H0.928711V31.0356H1.67871H30.2501H31.0001V29.5356H30.2501H29.2215V15.5745L30.5855 14.8924L31.0001 14.6851V14.2216V10.665V10.4379L30.8742 10.249L27.443 5.10222ZM27.7215 16.3245L27.0289 16.6707L26.6935 16.8384L26.3581 16.6707L23.1369 15.0601L19.9157 16.6707L19.5831 16.8371L19.2493 16.6729L15.9644 15.0574L12.6795 16.6729L12.3458 16.8371L12.0131 16.6707L8.79193 15.0601L5.57073 16.6707L5.23532 16.8384L4.89991 16.6707L4.20745 16.3245V29.5356H16.9932V27.4196H7.01354H6.26354V26.6696V19.5564V18.8064H7.01354H17.7426V18.8065H17.7432H24.9157H25.6657V19.5565V29.5356H27.7215V16.3245ZM24.1657 29.5356V27.4196H23.1366H22.3866V25.9196H23.1366H24.1657V20.3065H18.4932V29.5356H24.1657ZM16.9932 20.3064H7.76354V25.9196H16.9932V20.3064ZM5.6366 6.08024H9.52999L8.25172 9.91507H3.08004L5.6366 6.08024ZM2.42871 11.4151V13.7581L5.23532 15.1614L8.04229 13.7579V11.4151H2.42871ZM9.54229 11.4151V13.7583L12.3513 15.1628L15.2145 13.7546V11.4151H9.54229ZM9.83285 9.91507H15.2145V6.08024H11.1111L9.83285 9.91507ZM16.7145 11.4151V13.7547L19.5776 15.1628L22.3866 13.7582V11.4151H16.7145ZM22.097 9.91507H16.7145V6.08024H20.8187L22.097 9.91507ZM23.6782 9.91507L22.3999 6.08024H26.2922L28.8488 9.91507H23.6782ZM23.8866 11.4151H29.5001V13.7581L26.6935 15.1614L23.8866 13.7579V11.4151Z" fill="#2769D9"/>
</svg>
