<svg width="282" height="38" viewBox="0 0 282 38" fill="none" xmlns="http://www.w3.org/2000/svg">
<path d="M77.4477 22.65L68.1815 7.97555L65.4247 28.7807H69.5212L70.5103 18.6026L77.4196 29.5804L84.357 18.4904L85.4022 28.7737H89.4706L86.6859 7.98958L77.4477 22.636V22.65ZM136.601 11.9668H142.571V28.7877H146.373V11.9668H152.37V8.53671H136.594V11.9668H136.601ZM98.793 19.7881H105.436V16.3369H98.793V11.9738H107.042V8.54373H94.9911V28.7597H107.87V25.3085H98.793V19.7951V19.7881ZM128.142 21.4224L113.25 7.9545L113.194 28.7877H116.996L116.94 16.4141L131.86 29.5383L131.916 8.51567H128.114L128.142 21.4224ZM166.301 8.05972C160.114 8.05972 155.162 12.8507 155.162 18.6657C155.162 24.4808 160.114 29.2437 166.301 29.2437C172.488 29.2437 177.363 24.5018 177.363 18.7429C177.363 12.6402 172.411 8.05972 166.301 8.05972ZM166.112 25.8416C162.338 25.8416 159.202 22.3624 159.202 18.5605C159.202 14.7586 162.415 11.4898 166.301 11.4898C170.187 11.4898 173.288 14.5973 173.288 18.7218C173.288 22.8464 170.131 25.8486 166.112 25.8486V25.8416ZM271 8.51567H265.802V28.7877H270.783C277.454 28.7877 281.95 25.0139 281.95 18.6657C281.95 12.3176 276.998 8.51567 271 8.51567ZM270.783 26.515H268.37V10.8164H271.077C275.63 10.8164 279.221 13.5732 279.221 18.5815C279.221 24.123 275.581 26.508 270.783 26.508V26.515ZM256.108 23.4076L240.789 7.98256L240.761 28.7877H243.335L243.307 14.2185L258.627 29.5102L258.655 8.51567H256.08L256.108 23.4076ZM196.022 14.7586C196.022 9.29428 190.803 8.51567 186.889 8.51567H182.708V28.7877H186.51V21.233H186.91L194.514 28.7877H199.76L191.14 20.8893C193.791 20.223 196.015 18.5886 196.015 14.7586H196.022ZM186.517 17.7819V11.9738H187.913C190.803 11.9738 192.009 13.0962 192.009 14.7867C192.009 16.7928 190.67 17.7889 187.808 17.7889H186.524L186.517 17.7819ZM216.694 28.7877H219.535L221.73 24.0178H231.368L233.536 28.7877H236.376L226.521 7.79317L216.694 28.7877ZM230.295 21.689H222.74L226.086 14.4079C226.275 14.0081 226.458 13.4469 226.514 13.2575C226.57 13.4469 226.781 14.0081 226.97 14.4079L230.288 21.689H230.295ZM205.688 8.51567H203.113V28.7597H214.281V26.4799H205.688V8.51567ZM49.3825 21.0086L38.8606 31.5304C41.6665 34.4695 46.3452 34.5256 49.2211 31.6497L49.5017 31.3691C52.2795 28.5913 52.3356 24.095 49.621 21.2471L49.3895 21.0016L49.3825 21.0086ZM31.9513 4.86108L27.3988 0L0 27.3988L9.34339 37.3735L31.79 14.934C34.5537 12.1702 34.6238 7.71601 31.9583 4.8681L31.9513 4.86108ZM48.8634 0L21.4645 27.3988L30.8079 37.3735L53.2545 14.934C56.0182 12.1702 56.0884 7.71601 53.4228 4.8681L48.8704 0.00701455L48.8634 0Z" fill="white"/>
</svg>
