<svg width="30" height="28" viewBox="0 0 30 28" fill="none" xmlns="http://www.w3.org/2000/svg">
<path d="M27.2563 6.4938H26.883V2.8688C26.883 1.35591 25.6521 0.125 24.1392 0.125H4.23829C2.04221 0.125 0.23154 1.80475 0.022521 3.94682C-0.00940015 4.09818 0.0019666 2.74948 0.0019666 23.6392C0.0019666 25.9751 1.90233 27.8754 4.23823 27.8754H27.2562C28.7692 27.8754 30 26.6446 30 25.1316V9.2376C30.0001 7.7247 28.7692 6.4938 27.2563 6.4938ZM4.23829 2.0097H24.1392C24.6129 2.0097 24.9983 2.39511 24.9983 2.86886V6.49385H4.23829C2.97835 6.49385 1.94692 5.49776 1.88944 4.25178C1.94686 3.00573 2.97829 2.0097 4.23829 2.0097ZM27.2563 25.9908H4.23829C2.9416 25.9908 1.88667 24.9358 1.88667 23.6392V7.66428C2.58211 8.13082 3.40085 8.37946 4.23829 8.37844H27.2563C27.73 8.37844 28.1154 8.76385 28.1154 9.2376V13.0579H21.024C18.6089 13.0579 16.644 15.0227 16.644 17.4378C16.644 19.8529 18.6089 21.8177 21.024 21.8177H28.1154V25.1316C28.1154 25.6054 27.73 25.9908 27.2563 25.9908ZM28.1154 19.9331H21.024C19.6481 19.9331 18.5287 18.8138 18.5287 17.4379C18.5287 16.0619 19.648 14.9426 21.024 14.9426H28.1154V19.9331Z" fill="#2769D9"/>
<path d="M21.3715 18.8036C22.1258 18.8036 22.7372 18.1922 22.7372 17.4379C22.7372 16.6837 22.1258 16.0723 21.3715 16.0723C20.6173 16.0723 20.0059 16.6837 20.0059 17.4379C20.0059 18.1922 20.6173 18.8036 21.3715 18.8036Z" fill="#2769D9"/>
</svg>
