<svg width="14" height="19" viewBox="0 0 14 19" fill="none" xmlns="http://www.w3.org/2000/svg">
<path d="M6.82368 0.5H3.90421C3.20474 0.5 2.63947 1.06684 2.63947 1.76474C2.63947 2.46421 3.20632 3.02947 3.90421 3.02947H4.73158V7.59579C2.40105 7.57526 0.5 9.46053 0.5 11.7911V11.7911C0.5 12.0863 0.738421 12.3247 1.03368 12.3247H6.82368" stroke="#2769D9" stroke-miterlimit="10"/>
<path d="M6.8158 0.5H9.73527C10.4347 0.5 11 1.06684 11 1.76474C11 2.46421 10.4332 3.02947 9.73527 3.02947H8.9079V7.59579C11.2384 7.57526 13.1395 9.46053 13.1395 11.7911C13.1395 12.0863 12.9011 12.3247 12.6058 12.3247H6.8158V18.5" stroke="#2769D9" stroke-miterlimit="10"/>
</svg>
