<svg width="20" height="20" viewBox="0 0 20 20" fill="none" xmlns="http://www.w3.org/2000/svg">
<path d="M10 1C8.21997 1 6.47991 1.52784 4.99987 2.51677C3.51983 3.50571 2.36628 4.91131 1.68509 6.55585C1.0039 8.20038 0.82567 10.01 1.17294 11.7558C1.5202 13.5016 2.37737 15.1053 3.63604 16.364C4.89471 17.6226 6.49836 18.4798 8.24419 18.8271C9.99002 19.1743 11.7996 18.9961 13.4442 18.3149C15.0887 17.6337 16.4943 16.4802 17.4832 15.0001C18.4722 13.5201 19 11.78 19 10C19 7.61305 18.0518 5.32387 16.364 3.63604C14.6761 1.94821 12.3869 1 10 1Z" stroke="#2769D9" stroke-miterlimit="10"/>
<path d="M7.13635 7.2535C7.13635 7.2535 7.17931 6.35861 8.13709 5.58799C8.70522 5.13032 9.38635 4.99787 9.99999 4.98867C10.5589 4.98151 11.058 5.07407 11.3566 5.21623C11.868 5.45963 12.8636 6.05384 12.8636 7.31742C12.8636 8.64696 11.9943 9.25088 11.0038 9.91515C10.0133 10.5794 9.74431 11.3004 9.74431 12.0455" stroke="#2769D9" stroke-miterlimit="10" stroke-linecap="round"/>
<path d="M9.69326 15.7271C10.2581 15.7271 10.716 15.2692 10.716 14.7044C10.716 14.1395 10.2581 13.6816 9.69326 13.6816C9.12842 13.6816 8.67053 14.1395 8.67053 14.7044C8.67053 15.2692 9.12842 15.7271 9.69326 15.7271Z" fill="#2769D9"/>
</svg>
