<svg width="32" height="32" viewBox="0 0 32 32" fill="none" xmlns="http://www.w3.org/2000/svg">
<path fill-rule="evenodd" clip-rule="evenodd" d="M4.99952 10.9999C4.99952 4.93383 9.93359 -0.000244141 15.9997 -0.000244141C22.0638 -0.000244141 26.9998 4.93383 26.9998 10.9999C26.9998 17.066 22.0638 22.0001 15.9997 22.0001C9.93359 22.0001 4.99952 17.066 4.99952 10.9999ZM0.133262 25.5001L4.74933 17.486C6.82536 21.07 10.5534 23.5761 14.8915 23.9441L10.5254 31.5002C10.4376 31.6522 10.3114 31.7784 10.1594 31.8662C10.0074 31.954 9.83494 32.0002 9.65941 32.0002C9.6174 32.0002 9.5714 31.9982 9.5274 31.9942C9.1274 31.9402 8.79739 31.6502 8.69339 31.2602L7.13137 25.3881L1.25928 26.9661C0.867273 27.0741 0.453267 26.9301 0.207263 26.6101C-0.0387403 26.2901 -0.0687408 25.8521 0.133262 25.5001ZM27.2497 17.486L31.8677 25.5001C32.0677 25.8521 32.0397 26.2901 31.7917 26.6081C31.5437 26.9281 31.1317 27.0721 30.7397 26.9641L24.8676 25.3861L23.3056 31.2582C23.1996 31.6482 22.8716 31.9382 22.4696 31.9922C22.4276 31.9982 22.3816 32.0002 22.3396 32.0002C21.9856 32.0002 21.6536 31.8122 21.4736 31.5002L17.1075 23.9441C21.4456 23.5761 25.1756 21.07 27.2497 17.486Z" fill="#ED661B"/>
<path d="M12.765 9.13976C12.805 8.06976 13.155 7.24476 13.815 6.66476C14.475 6.08476 15.37 5.79476 16.5 5.79476C17.25 5.79476 17.89 5.92476 18.42 6.18476C18.96 6.44476 19.365 6.79976 19.635 7.24976C19.915 7.69976 20.055 8.20476 20.055 8.76476C20.055 9.42476 19.89 9.96476 19.56 10.3848C19.23 10.7948 18.845 11.0748 18.405 11.2248V11.2848C18.975 11.4748 19.425 11.7898 19.755 12.2298C20.085 12.6698 20.25 13.2348 20.25 13.9248C20.25 14.5448 20.105 15.0948 19.815 15.5748C19.535 16.0448 19.12 16.4148 18.57 16.6848C18.03 16.9548 17.385 17.0898 16.635 17.0898C15.435 17.0898 14.475 16.7948 13.755 16.2048C13.045 15.6148 12.67 14.7248 12.63 13.5348H15.12C15.13 13.9748 15.255 14.3248 15.495 14.5848C15.735 14.8348 16.085 14.9598 16.545 14.9598C16.935 14.9598 17.235 14.8498 17.445 14.6298C17.665 14.3998 17.775 14.0998 17.775 13.7298C17.775 13.2498 17.62 12.9048 17.31 12.6948C17.01 12.4748 16.525 12.3648 15.855 12.3648H15.375V10.2798H15.855C16.365 10.2798 16.775 10.1948 17.085 10.0248C17.405 9.84476 17.565 9.52976 17.565 9.07976C17.565 8.71976 17.465 8.43976 17.265 8.23976C17.065 8.03976 16.79 7.93976 16.44 7.93976C16.06 7.93976 15.775 8.05476 15.585 8.28476C15.405 8.51476 15.3 8.79976 15.27 9.13976H12.765Z" fill="white"/>
</svg>
