<svg width="32" height="32" viewBox="0 0 32 32" fill="none" xmlns="http://www.w3.org/2000/svg">
<path fill-rule="evenodd" clip-rule="evenodd" d="M4.99943 11C4.99943 4.93399 9.93342 0 15.9994 0C22.0634 0 26.9994 4.93399 26.9994 11C26.9994 17.066 22.0634 22 15.9994 22C9.93342 22 4.99943 17.066 4.99943 11ZM0.13326 25.4999L4.74925 17.4859C6.82525 21.0699 10.5532 23.5759 14.8912 23.9439L10.5252 31.4999C10.4375 31.6519 10.3112 31.7781 10.1592 31.8659C10.0072 31.9537 9.83477 31.9999 9.65924 31.9999C9.61724 31.9999 9.57124 31.9979 9.52724 31.9939C9.12724 31.9399 8.79724 31.6499 8.69324 31.2599L7.13125 25.3879L1.25926 26.9659C0.867259 27.0739 0.453259 26.9299 0.20726 26.6099C-0.0387397 26.2899 -0.0687396 25.8519 0.13326 25.4999ZM27.2492 17.4859L31.8672 25.4999C32.0672 25.8519 32.0392 26.2899 31.7912 26.6079C31.5432 26.9279 31.1312 27.0719 30.7392 26.9639L24.8672 25.3859L23.3052 31.2579C23.1992 31.6479 22.8712 31.9379 22.4692 31.9919C22.4272 31.9979 22.3812 31.9999 22.3392 31.9999C21.9852 31.9999 21.6532 31.8119 21.4732 31.4999L17.1072 23.9439C21.4452 23.5759 25.1752 21.0699 27.2492 17.4859Z" fill="#FFB800"/>
<path d="M13.405 8.435V6.05H17.56V17H14.89V8.435H13.405Z" fill="white"/>
</svg>
