<svg width="32" height="32" viewBox="0 0 32 32" fill="none" xmlns="http://www.w3.org/2000/svg">
<path fill-rule="evenodd" clip-rule="evenodd" d="M4.99952 10.9999C4.99952 4.93383 9.93359 -0.000244141 15.9997 -0.000244141C22.0638 -0.000244141 26.9998 4.93383 26.9998 10.9999C26.9998 17.066 22.0638 22.0001 15.9997 22.0001C9.93359 22.0001 4.99952 17.066 4.99952 10.9999ZM0.133262 25.5001L4.74933 17.486C6.82536 21.07 10.5534 23.5761 14.8915 23.9441L10.5254 31.5002C10.4376 31.6522 10.3114 31.7784 10.1594 31.8662C10.0074 31.954 9.83494 32.0002 9.65941 32.0002C9.6174 32.0002 9.5714 31.9982 9.5274 31.9942C9.1274 31.9402 8.79739 31.6502 8.69339 31.2602L7.13137 25.3881L1.25928 26.9661C0.867273 27.0741 0.453267 26.9301 0.207263 26.6101C-0.0387403 26.2901 -0.0687408 25.8521 0.133262 25.5001ZM27.2497 17.486L31.8677 25.5001C32.0677 25.8521 32.0397 26.2901 31.7917 26.6081C31.5437 26.9281 31.1317 27.0721 30.7397 26.9641L24.8676 25.3861L23.3056 31.2582C23.1996 31.6482 22.8716 31.9382 22.4696 31.9922C22.4276 31.9982 22.3816 32.0002 22.3396 32.0002C21.9856 32.0002 21.6536 31.8122 21.4736 31.5002L17.1075 23.9441C21.4456 23.5761 25.1756 21.07 27.2497 17.486Z" fill="#A8A8A8"/>
<path d="M12.585 14.9448C12.925 14.6748 13.08 14.5498 13.05 14.5698C14.03 13.7598 14.8 13.0948 15.36 12.5748C15.93 12.0548 16.41 11.5098 16.8 10.9398C17.19 10.3698 17.385 9.81476 17.385 9.27476C17.385 8.86476 17.29 8.54476 17.1 8.31476C16.91 8.08476 16.625 7.96975 16.245 7.96975C15.865 7.96975 15.565 8.11476 15.345 8.40476C15.135 8.68476 15.03 9.08476 15.03 9.60476H12.555C12.575 8.75476 12.755 8.04476 13.095 7.47476C13.445 6.90476 13.9 6.48476 14.46 6.21476C15.03 5.94476 15.66 5.80976 16.35 5.80976C17.54 5.80976 18.435 6.11476 19.035 6.72475C19.645 7.33476 19.95 8.12976 19.95 9.10976C19.95 10.1798 19.585 11.1748 18.855 12.0948C18.125 13.0048 17.195 13.8948 16.065 14.7648H20.115V16.8498H12.585V14.9448Z" fill="white"/>
</svg>
