<svg width="20" height="20" viewBox="0 0 20 20" fill="none" xmlns="http://www.w3.org/2000/svg">
<g clip-path="url(#clip0_529_3472)">
<path d="M14.5837 0.000162125C11.597 0.000162125 9.16699 2.43016 9.16699 5.41683C9.16699 8.4035 11.597 10.8335 14.5837 10.8335C17.5703 10.8335 20.0003 8.4035 20.0003 5.41683C20.0003 2.43016 17.5703 0.000162125 14.5837 0.000162125ZM14.5837 9.5835C12.2862 9.5835 10.417 7.71433 10.417 5.41683C10.417 3.11933 12.2862 1.25016 14.5837 1.25016C16.8812 1.25016 18.7503 3.11933 18.7503 5.41683C18.7503 7.71433 16.8812 9.5835 14.5837 9.5835Z" fill="#1A458F"/>
<path d="M14.583 2.50016C14.4172 2.50016 14.2583 2.56601 14.1411 2.68322C14.0239 2.80043 13.958 2.9594 13.958 3.12516V7.7085C13.958 7.87426 14.0239 8.03323 14.1411 8.15044C14.2583 8.26765 14.4172 8.3335 14.583 8.3335C14.7488 8.3335 14.9077 8.26765 15.025 8.15044C15.1422 8.03323 15.208 7.87426 15.208 7.7085V3.12516C15.208 2.9594 15.1422 2.80043 15.025 2.68322C14.9077 2.56601 14.7488 2.50016 14.583 2.50016Z" fill="#1A458F"/>
<path d="M16.875 4.79167H12.2917C12.1259 4.79167 11.9669 4.85751 11.8497 4.97472C11.7325 5.09194 11.6667 5.25091 11.6667 5.41667C11.6667 5.58243 11.7325 5.7414 11.8497 5.85861C11.9669 5.97582 12.1259 6.04167 12.2917 6.04167H16.875C17.0408 6.04167 17.1997 5.97582 17.3169 5.85861C17.4342 5.7414 17.5 5.58243 17.5 5.41667C17.5 5.25091 17.4342 5.09194 17.3169 4.97472C17.1997 4.85751 17.0408 4.79167 16.875 4.79167ZM7.65833 2.5H2.29167C1.68401 2.50044 1.10138 2.74203 0.671701 3.1717C0.242026 3.60138 0.000441448 4.18401 0 4.79167L0 17.7083C0.000441448 18.316 0.242026 18.8986 0.671701 19.3283C1.10138 19.758 1.68401 19.9996 2.29167 20H11.875C12.4827 19.9996 13.0653 19.758 13.495 19.3283C13.9246 18.8986 14.1662 18.316 14.1667 17.7083V12.6333C14.1667 12.4676 14.1008 12.3086 13.9836 12.1914C13.8664 12.0742 13.7074 12.0083 13.5417 12.0083C13.3759 12.0083 13.2169 12.0742 13.0997 12.1914C12.9825 12.3086 12.9167 12.4676 12.9167 12.6333V17.7083C12.9167 18.2825 12.4492 18.75 11.875 18.75H2.29167C1.7175 18.75 1.25 18.2825 1.25 17.7083V4.79167C1.25 4.2175 1.7175 3.75 2.29167 3.75H7.65833C7.82409 3.75 7.98306 3.68415 8.10028 3.56694C8.21749 3.44973 8.28333 3.29076 8.28333 3.125C8.28333 2.95924 8.21749 2.80027 8.10028 2.68306C7.98306 2.56585 7.82409 2.5 7.65833 2.5Z" fill="#1A458F"/>
<path d="M11.0417 12.0832H3.125C2.95924 12.0832 2.80027 12.149 2.68306 12.2662C2.56585 12.3834 2.5 12.5424 2.5 12.7082C2.5 12.8739 2.56585 13.0329 2.68306 13.1501C2.80027 13.2673 2.95924 13.3332 3.125 13.3332H11.0417C11.2074 13.3332 11.3664 13.2673 11.4836 13.1501C11.6008 13.0329 11.6667 12.8739 11.6667 12.7082C11.6667 12.5424 11.6008 12.3834 11.4836 12.2662C11.3664 12.149 11.2074 12.0832 11.0417 12.0832ZM7.70833 8.74984H3.125C2.95924 8.74984 2.80027 8.81569 2.68306 8.9329C2.56585 9.05011 2.5 9.20908 2.5 9.37484C2.5 9.5406 2.56585 9.69957 2.68306 9.81678C2.80027 9.93399 2.95924 9.99984 3.125 9.99984H7.70833C7.87409 9.99984 8.03306 9.93399 8.15028 9.81678C8.26749 9.69957 8.33333 9.5406 8.33333 9.37484C8.33333 9.20908 8.26749 9.05011 8.15028 8.9329C8.03306 8.81569 7.87409 8.74984 7.70833 8.74984ZM6.875 15.4165H3.125C2.95924 15.4165 2.80027 15.4824 2.68306 15.5996C2.56585 15.7168 2.5 15.8757 2.5 16.0415C2.5 16.2073 2.56585 16.3662 2.68306 16.4834C2.80027 16.6007 2.95924 16.6665 3.125 16.6665H6.875C7.04076 16.6665 7.19973 16.6007 7.31694 16.4834C7.43415 16.3662 7.5 16.2073 7.5 16.0415C7.5 15.8757 7.43415 15.7168 7.31694 15.5996C7.19973 15.4824 7.04076 15.4165 6.875 15.4165Z" fill="#1A458F"/>
</g>
<defs>
<clipPath id="clip0_529_3472">
<rect width="20" height="20" fill="white" transform="matrix(1 0 0 -1 0 20)"/>
</clipPath>
</defs>
</svg>
