<svg width="20" height="20" viewBox="0 0 20 20" fill="none" xmlns="http://www.w3.org/2000/svg">
<path d="M5.4858 8.1024L2.21413 11.3741C1.37189 12.2292 0.899374 13.3811 0.898439 14.5814C0.897504 15.7817 1.36822 16.9343 2.20913 17.7907C2.62963 18.2135 3.12955 18.549 3.68015 18.778C4.23074 19.0069 4.82116 19.1248 5.41746 19.1248C6.01376 19.1248 6.60418 19.0069 7.15478 18.778C7.70538 18.549 8.20529 18.2135 8.62579 17.7907L10.2841 16.1324C10.3637 16.0555 10.4272 15.9636 10.4709 15.8619C10.5146 15.7602 10.5375 15.6509 10.5385 15.5402C10.5395 15.4296 10.5184 15.3199 10.4765 15.2174C10.4346 15.115 10.3727 15.022 10.2945 14.9437C10.2162 14.8655 10.1232 14.8036 10.0208 14.7617C9.91834 14.7198 9.80861 14.6987 9.69796 14.6997C9.58731 14.7007 9.47796 14.7236 9.37629 14.7673C9.27462 14.811 9.18267 14.8745 9.10579 14.9541L7.44246 16.6124C6.90246 17.1399 6.17621 17.4333 5.42131 17.4287C4.66641 17.4241 3.94376 17.1221 3.41017 16.588C2.87659 16.054 2.57511 15.3311 2.57117 14.5762C2.56723 13.8213 2.86114 13.0953 3.38913 12.5557L6.66663 9.28074C7.02107 8.92245 7.4651 8.66576 7.95246 8.53741C8.43872 8.40613 8.95106 8.40591 9.43743 8.53676C9.92381 8.66761 10.3669 8.92487 10.7216 9.28241C10.7925 9.35241 10.8625 9.42991 10.9441 9.51907C11.0176 9.59963 11.1063 9.66484 11.2051 9.71095C11.3039 9.75706 11.4108 9.78316 11.5197 9.78773C11.6286 9.7923 11.7374 9.77526 11.8397 9.73759C11.942 9.69991 12.0358 9.64236 12.1158 9.56824C12.2784 9.41737 12.3749 9.20834 12.3841 8.9867C12.3933 8.76505 12.3145 8.54874 12.165 8.38491C12.0794 8.28976 11.9916 8.19668 11.9016 8.10574C11.4808 7.68345 10.9808 7.34838 10.4303 7.11975C9.87972 6.89113 9.28944 6.77344 8.6933 6.77344C8.09715 6.77344 7.50687 6.89113 6.95631 7.11975C6.40575 7.34838 5.90574 7.68345 5.48496 8.10574L5.4858 8.1024Z" fill="#1A458F"/>
<path d="M10.8971 5.0475L12.5571 3.3875C13.1025 2.86328 13.8299 2.5709 14.5864 2.57184C15.3429 2.57277 16.0696 2.86693 16.6137 3.3925C17.1387 3.93624 17.4321 4.66253 17.4321 5.41833C17.4321 6.17413 17.1387 6.90042 16.6137 7.44417L13.3329 10.7192C12.9785 11.0775 12.5344 11.3341 12.0471 11.4625C11.5608 11.5932 11.0486 11.5931 10.5623 11.4623C10.0761 11.3314 9.633 11.0745 9.27791 10.7175C9.20707 10.6475 9.13707 10.57 9.05541 10.4808C8.98195 10.4003 8.89326 10.3351 8.79447 10.289C8.69568 10.2428 8.58874 10.2167 8.47982 10.2122C8.37089 10.2076 8.26214 10.2246 8.15983 10.2623C8.05752 10.3 7.96369 10.3575 7.88374 10.4317C7.7211 10.5825 7.62467 10.7916 7.61546 11.0132C7.60626 11.2349 7.68501 11.4512 7.83457 11.615C7.92374 11.7125 8.01291 11.81 8.09791 11.8942C8.66237 12.4539 9.36286 12.857 10.1304 13.0637C10.898 13.2705 11.7062 13.2738 12.4754 13.0733C13.2466 12.8691 13.9496 12.4632 14.5121 11.8975L17.7837 8.62583C18.6144 7.76465 19.0791 6.61504 19.08 5.41851C19.0809 4.22197 18.6181 3.07164 17.7887 2.20917C17.3682 1.78638 16.8683 1.45087 16.3177 1.22193C15.7671 0.992984 15.1767 0.875126 14.5804 0.875126C13.9841 0.875126 13.3937 0.992984 12.8431 1.22193C12.2925 1.45087 11.7926 1.78638 11.3721 2.20917L9.71374 3.8675C9.56194 4.02467 9.47795 4.23517 9.47985 4.45367C9.48174 4.67216 9.56938 4.88118 9.72389 5.03568C9.8784 5.19019 10.0874 5.27783 10.3059 5.27973C10.5244 5.28163 10.7349 5.19763 10.8921 5.04583L10.8971 5.0475ZM4.17457 5.34833C4.33426 5.49796 4.5449 5.58123 4.76374 5.58123C4.98258 5.58123 5.19322 5.49796 5.35291 5.34833C5.43071 5.27084 5.49243 5.17873 5.53451 5.07731C5.5766 4.97588 5.59823 4.86714 5.59815 4.75733C5.59807 4.64752 5.57629 4.5388 5.53406 4.43744C5.49183 4.33607 5.42998 4.24405 5.35207 4.16667L3.38541 2.2075C3.30842 2.12802 3.21638 2.06468 3.11465 2.02115C3.01292 1.97763 2.90354 1.9548 2.79289 1.954C2.68225 1.95319 2.57255 1.97444 2.4702 2.01648C2.36785 2.05853 2.2749 2.12053 2.19676 2.19889C2.11863 2.27724 2.05689 2.37037 2.01513 2.47283C1.97338 2.5753 1.95245 2.68506 1.95356 2.7957C1.95468 2.90635 1.97782 3.01566 2.02163 3.11727C2.06544 3.21887 2.12905 3.31074 2.20874 3.3875L4.17457 5.34833ZM7.37874 0C7.59975 0 7.81172 0.0877974 7.968 0.244078C8.12428 0.400358 8.21207 0.61232 8.21207 0.833333V2.14917C8.21207 2.37018 8.12428 2.58214 7.968 2.73842C7.81172 2.8947 7.59975 2.9825 7.37874 2.9825C7.15773 2.9825 6.94576 2.8947 6.78948 2.73842C6.6332 2.58214 6.54541 2.37018 6.54541 2.14917V0.833333C6.54541 0.61232 6.6332 0.400358 6.78948 0.244078C6.94576 0.0877974 7.15773 0 7.37874 0ZM0.832907 8.21417L2.15207 8.2075C2.37309 8.2075 2.58505 8.1197 2.74133 7.96342C2.89761 7.80714 2.98541 7.59518 2.98541 7.37417C2.98541 7.15315 2.89761 6.94119 2.74133 6.78491C2.58505 6.62863 2.37309 6.54083 2.15207 6.54083H2.14791L0.827907 6.5475C0.718472 6.54783 0.610174 6.56971 0.509195 6.61189C0.408216 6.65407 0.316534 6.71573 0.239384 6.79335C0.0835725 6.95009 -0.00358897 7.16232 -0.00292593 7.38333C-0.00226289 7.60435 0.0861704 7.81604 0.24292 7.97186C0.399669 8.12767 0.611894 8.21483 0.832907 8.21417ZM17.2021 18.0358C17.3668 18.0358 17.5278 17.987 17.6647 17.8955C17.8017 17.804 17.9085 17.674 17.9716 17.5219C18.0347 17.3698 18.0513 17.2024 18.0194 17.0408C17.9874 16.8793 17.9083 16.7308 17.7921 16.6142L15.8329 14.6475C15.7556 14.57 15.6638 14.5085 15.5627 14.4665C15.4616 14.4245 15.3532 14.4029 15.2438 14.4027C15.1343 14.4026 15.0259 14.4241 14.9248 14.4659C14.8236 14.5076 14.7316 14.5689 14.6542 14.6462C14.5767 14.7236 14.5152 14.8154 14.4732 14.9165C14.4312 15.0175 14.4095 15.1259 14.4094 15.2354C14.4093 15.3448 14.4307 15.4532 14.4725 15.5544C14.5143 15.6556 14.5756 15.7475 14.6529 15.825L16.6137 17.7908C16.7696 17.9472 16.9812 18.0353 17.2021 18.0358ZM17.0179 12.6217C17.0179 12.8427 17.1057 13.0546 17.262 13.2109C17.4183 13.3672 17.6302 13.455 17.8512 13.455H19.1662C19.3873 13.455 19.5992 13.3672 19.7555 13.2109C19.9118 13.0546 19.9996 12.8427 19.9996 12.6217C19.9996 12.4007 19.9118 12.1887 19.7555 12.0324C19.5992 11.8761 19.3873 11.7883 19.1662 11.7883H17.8504C17.6295 11.7886 17.4178 11.8764 17.2617 12.0327C17.1056 12.189 17.0179 12.4008 17.0179 12.6217ZM12.6187 20C12.8389 20 13.0501 19.9129 13.2062 19.7577C13.3624 19.6025 13.4508 19.3918 13.4521 19.1717L13.4587 17.8517C13.4587 17.6314 13.3715 17.42 13.2161 17.2639C13.0608 17.1077 12.8499 17.0194 12.6296 17.0183H12.6254C12.4051 17.0183 12.1938 17.1056 12.0376 17.2609C11.8815 17.4163 11.7932 17.6272 11.7921 17.8475L11.7854 19.1667C11.7854 19.3868 11.8725 19.598 12.0277 19.7542C12.1829 19.9103 12.3936 19.9987 12.6137 20H12.6187Z" fill="#1A458F"/>
</svg>
