<svg width="22" height="22" viewBox="0 0 22 22" fill="none" xmlns="http://www.w3.org/2000/svg">
<path d="M11 11.1963H1V1.00021H11M11 11.1963V1.00021M11 11.1963H21V1.00021H11" stroke="#1A458F" stroke-miterlimit="10" stroke-linecap="round" stroke-linejoin="round"/>
<path d="M10.8039 11.1961V21H1V11.1961" stroke="#1A458F" stroke-miterlimit="10" stroke-linecap="round" stroke-linejoin="round"/>
<path d="M20.9998 11.1961V21H10.8037" stroke="#1A458F" stroke-miterlimit="10" stroke-linecap="round" stroke-linejoin="round"/>
<path d="M5.90156 17.3725C5.90156 18.0763 5.33092 18.647 4.62705 18.647C3.92318 18.647 3.35254 18.0763 3.35254 17.3725C3.35254 16.6686 3.92318 16.098 4.62705 16.098C5.33092 16.098 5.90156 16.6686 5.90156 17.3725ZM5.90156 17.3725V13.5489L8.45058 14.8234" stroke="#1A458F" stroke-miterlimit="10" stroke-linecap="round" stroke-linejoin="round"/>
<path d="M4.92188 3.35313V8.45117L8.45129 5.90215L4.92188 3.35313Z" stroke="#1A458F" stroke-miterlimit="10" stroke-linecap="round" stroke-linejoin="round"/>
<path d="M10.8037 17.0786L13.3527 14.7257L15.9018 17.0786" stroke="#1A458F" stroke-miterlimit="10" stroke-linecap="round" stroke-linejoin="round"/>
<path d="M14.7256 15.9021L17.2188 13.5492L21.0001 17.0786" stroke="#1A458F" stroke-miterlimit="10" stroke-linecap="round" stroke-linejoin="round"/>
<path d="M15.9018 7.27441H13.5488V4.92147H15.9018V7.27441Z" stroke="#1A458F" stroke-miterlimit="10" stroke-linecap="round" stroke-linejoin="round"/>
<path d="M15.9023 4.62764L18.6474 3.35313V8.45117L15.9023 7.17666" stroke="#1A458F" stroke-miterlimit="10" stroke-linecap="round" stroke-linejoin="round"/>
</svg>
